<?xml version="1.0" standalone="no"?><!-- Generator: Gravit.io --><svg xmlns="http://www.w3.org/2000/svg" xmlns:xlink="http://www.w3.org/1999/xlink" style="isolation:isolate" viewBox="0 0 64 64" width="64" height="64"><defs><clipPath id="_clipPath_4C7aJ7JkX4COcLOQLI58PvIU2qawI1jF"><rect width="64" height="64"/></clipPath></defs><g clip-path="url(#_clipPath_4C7aJ7JkX4COcLOQLI58PvIU2qawI1jF)"><g><path d=" M 58.608 5.263 C 55.767 2.55 52.15 1 48.146 1 L 47.887 1 C 39.879 1.129 33.292 7.975 33.292 16.242 L 33.292 25.542 L 3.583 25.542 C 2.163 25.542 1 26.704 1 28.125 L 1 32 L 47.5 32 L 47.5 28.125 C 47.5 26.704 46.337 25.542 44.917 25.542 L 42.333 25.542 L 42.333 16.112 C 42.333 13.013 44.658 10.3 47.5 10.042 C 49.179 9.912 50.729 10.429 52.021 11.592 C 53.183 12.625 53.958 14.304 53.958 15.854 L 53.958 23.604 C 53.958 26.058 56.025 28.125 58.479 28.125 C 60.933 28.125 63 26.058 63 23.604 L 63 15.854 C 63 11.85 61.45 8.104 58.608 5.263 Z " fill="rgb(0,0,0)"/><path d=" M 1 56.542 C 1 60.158 3.842 63 7.458 63 L 41.042 63 C 44.658 63 47.5 60.158 47.5 56.542 L 47.5 34.583 L 1 34.583 L 1 56.542 Z  M 24.25 41.042 C 27.092 41.042 29.417 43.367 29.417 46.208 C 29.417 48.663 27.738 50.6 25.542 51.246 L 25.542 55.25 C 25.542 55.896 25.025 56.542 24.25 56.542 C 23.475 56.542 22.958 55.896 22.958 55.25 L 22.958 51.246 C 20.762 50.6 19.083 48.663 19.083 46.208 C 19.083 43.367 21.408 41.042 24.25 41.042 Z " fill="rgb(0,0,0)"/></g></g></svg>