<?xml version="1.0" standalone="no"?><!-- Generator: Gravit.io --><svg xmlns="http://www.w3.org/2000/svg" xmlns:xlink="http://www.w3.org/1999/xlink" style="isolation:isolate" viewBox="0 0 64 64" width="64" height="64"><defs><clipPath id="_clipPath_JtyySjGll701iKQA8ujl2YT1d2LLUe7y"><rect width="64" height="64"/></clipPath></defs><g clip-path="url(#_clipPath_JtyySjGll701iKQA8ujl2YT1d2LLUe7y)"><g><path d=" M 51.409 25.569 C 51.33 25.569 51.171 25.569 51.092 25.569 C 51.092 25.41 51.092 25.252 51.092 25.093 C 51.092 15.963 43.629 8.5 34.499 8.5 C 30.053 8.5 25.766 10.326 22.67 13.502 C 22.193 13.422 21.717 13.422 21.24 13.422 C 13.857 13.422 7.903 19.377 7.823 26.76 C 4.33 28.586 2.186 32.159 2.186 36.128 C 2.186 41.924 6.95 46.688 12.746 46.688 L 23.543 46.688 C 23.225 46.132 22.908 45.576 22.67 45.02 C 22.59 44.861 22.59 44.703 22.511 44.623 C 21.32 41.448 21.717 37.875 23.543 35.017 C 25.607 32 28.941 30.174 32.514 30.174 C 34.023 30.174 35.531 30.492 37.039 31.206 L 37.992 31.603 L 38.865 31.206 C 40.295 30.571 41.803 30.174 43.391 30.174 C 46.963 30.174 50.377 32 52.362 35.096 C 54.267 37.954 54.664 41.448 53.394 44.782 C 53.394 44.861 53.315 45.02 53.235 45.179 C 52.997 45.735 52.759 46.291 52.362 46.767 C 57.681 46.211 61.81 41.686 61.81 36.287 C 61.969 30.333 57.205 25.569 51.409 25.569 Z " fill="rgb(0,0,0)"/><path d=" M 27.433 46.767 C 28.465 47.878 29.735 48.831 31.006 49.784 C 32.752 51.133 34.816 52.563 36.722 54.944 C 37.039 55.341 37.436 55.5 37.913 55.5 C 38.389 55.5 38.865 55.262 39.104 54.944 C 41.009 52.642 43.073 51.133 44.82 49.784 C 46.09 48.831 47.36 47.878 48.392 46.767 C 49.186 45.973 49.822 45.02 50.298 43.829 C 50.377 43.75 50.377 43.671 50.377 43.591 C 51.251 41.289 51.012 38.828 49.663 36.843 C 48.234 34.699 45.852 33.35 43.311 33.35 C 42.2 33.35 41.168 33.588 40.136 34.064 L 37.913 35.096 L 35.69 34.064 C 34.658 33.588 33.546 33.35 32.514 33.35 C 29.974 33.35 27.592 34.62 26.163 36.843 C 24.813 38.907 24.575 41.368 25.448 43.591 C 25.448 43.671 25.528 43.75 25.528 43.829 C 26.004 44.941 26.719 45.894 27.433 46.767 Z " fill="rgb(0,0,0)"/></g></g></svg>