<?xml version="1.0" standalone="no"?><!-- Generator: Gravit.io --><svg xmlns="http://www.w3.org/2000/svg" xmlns:xlink="http://www.w3.org/1999/xlink" style="isolation:isolate" viewBox="0 0 64 64" width="64" height="64"><defs><clipPath id="_clipPath_9BTjf1o02sHEQAy5fYEEEjGe5EIjyqEa"><rect width="64" height="64"/></clipPath></defs><g clip-path="url(#_clipPath_9BTjf1o02sHEQAy5fYEEEjGe5EIjyqEa)"><path d=" M 24.164 32.088 C 23.915 31.967 23.624 31.967 23.375 32.088 L 18.353 34.863 C 18.122 35.003 17.973 35.247 17.956 35.517 L 17.956 41.067 C 17.973 41.338 18.121 41.584 18.353 41.725 L 23.375 44.5 C 23.624 44.621 23.915 44.621 24.164 44.5 L 29.181 41.725 C 29.414 41.584 29.562 41.338 29.579 41.067 L 29.579 35.517 C 29.562 35.245 29.414 34.999 29.181 34.858 L 24.164 32.088 Z  M 27.641 40.36 L 23.767 42.5 L 19.893 40.36 L 19.893 36.224 L 23.767 34.083 L 27.641 36.224 L 27.641 40.36 Z " fill="rgb(0,0,0)"/><path d=" M 33.453 51.242 L 32.199 51.953 L 32 52.336 L 32 54.273 C 32 54.808 31.566 55.242 31.031 55.242 C 30.496 55.242 30.063 54.808 30.063 54.273 L 30.063 51.498 C 30.061 51.151 30.246 50.829 30.547 50.656 L 32.484 49.556 C 32.95 49.289 33.544 49.449 33.811 49.915 C 34.079 50.38 33.918 50.974 33.453 51.242 L 33.453 51.242 Z  M 31.516 7.297 C 31.517 6.932 31.723 6.599 32.048 6.435 L 33.986 5.466 C 34.297 5.279 34.686 5.282 34.995 5.473 C 35.304 5.664 35.479 6.012 35.45 6.374 C 35.421 6.736 35.192 7.051 34.857 7.19 L 33.453 7.902 L 33.453 9.234 C 33.453 9.769 33.019 10.203 32.484 10.203 C 31.949 10.203 31.516 9.769 31.516 9.234 L 31.516 7.297 Z  M 56.215 40.456 L 56.215 43.779 C 56.141 44.169 55.921 44.515 55.599 44.747 L 42.654 51.915 L 42.654 49.735 C 42.636 49.34 42.426 48.979 42.093 48.767 L 34.983 44.718 C 34.629 44.544 34.214 44.544 33.86 44.718 L 26.75 48.777 C 26.417 48.989 26.207 49.35 26.189 49.745 L 26.189 51.924 L 13.243 44.771 C 12.922 44.54 12.701 44.193 12.628 43.803 L 12.628 33.086 L 19.331 29.26 C 19.665 29.047 19.874 28.686 19.893 28.291 L 19.893 20.194 C 19.874 19.799 19.665 19.437 19.331 19.225 L 17.19 18 L 27.743 12.188 C 27.826 12.367 27.959 12.519 28.126 12.624 L 33.937 15.908 C 34.087 15.985 34.254 16.021 34.421 16.014 C 34.59 16.023 34.757 15.986 34.906 15.908 L 40.717 12.624 C 40.874 12.523 41 12.381 41.08 12.213 L 42.654 13.046 L 44.635 11.927 L 41.202 10.033 L 41.202 5.19 C 41.182 4.86 41.001 4.562 40.717 4.391 L 34.906 1.108 C 34.757 1.029 34.59 0.993 34.421 1.001 C 34.254 0.994 34.087 1.031 33.937 1.108 L 28.126 4.391 C 27.848 4.56 27.667 4.852 27.641 5.176 L 27.641 10.019 L 15.219 16.886 L 12.222 15.176 C 11.867 15.002 11.452 15.002 11.098 15.176 L 3.989 19.235 C 3.655 19.447 3.445 19.808 3.427 20.203 L 3.427 28.301 C 3.445 28.696 3.655 29.057 3.989 29.269 L 10.691 33.086 L 10.691 43.788 C 10.762 44.891 11.365 45.891 12.309 46.466 L 26.189 54.128 L 26.189 57.842 C 26.207 58.237 26.417 58.599 26.75 58.811 L 33.86 62.869 C 34.214 63.044 34.629 63.044 34.983 62.869 L 42.093 58.811 C 42.426 58.599 42.636 58.237 42.654 57.842 L 42.654 54.128 L 56.534 46.466 C 57.478 45.891 58.081 44.891 58.152 43.788 L 58.152 39.372 L 56.215 40.456 Z  M 10.691 21.7 L 9.432 22.412 L 9.238 22.794 L 9.238 24.732 C 9.238 25.266 8.805 25.7 8.27 25.7 C 7.735 25.7 7.301 25.266 7.301 24.732 L 7.301 21.957 C 7.3 21.609 7.485 21.288 7.785 21.114 L 9.723 20.015 C 10.188 19.747 10.782 19.908 11.05 20.373 C 11.317 20.838 11.157 21.432 10.691 21.7 L 10.691 21.7 Z " fill="rgb(0,0,0)"/><path d=" M 59.648 19.942 L 47.938 13.326 C 47.357 13.038 46.674 13.038 46.093 13.326 L 34.378 19.942 C 33.836 20.284 33.491 20.866 33.453 21.506 L 33.453 34.737 C 33.491 35.377 33.836 35.959 34.378 36.301 L 46.088 42.917 C 46.669 43.205 47.352 43.205 47.933 42.917 L 59.648 36.301 C 60.19 35.959 60.535 35.377 60.573 34.737 L 60.573 21.506 C 60.535 20.866 60.19 20.284 59.648 19.942 Z  M 46.044 22.179 L 41.686 24.732 L 41.686 29.09 C 41.686 29.625 41.252 30.059 40.717 30.059 C 40.182 30.059 39.749 29.625 39.749 29.09 L 39.749 24.15 C 39.749 23.805 39.934 23.485 40.233 23.313 L 45.076 20.504 C 45.536 20.263 46.104 20.428 46.363 20.877 C 46.623 21.327 46.482 21.901 46.044 22.179 Z " fill="rgb(0,0,0)"/></g></svg>