<?xml version="1.0" standalone="no"?><!-- Generator: Gravit.io --><svg xmlns="http://www.w3.org/2000/svg" xmlns:xlink="http://www.w3.org/1999/xlink" style="isolation:isolate" viewBox="0 0 64 64" width="64" height="64"><defs><clipPath id="_clipPath_NVUQt9lHdNpbhL0BetysiGvE1gfG5IBO"><rect width="64" height="64"/></clipPath></defs><g clip-path="url(#_clipPath_NVUQt9lHdNpbhL0BetysiGvE1gfG5IBO)"><path d=" M 50.088 58.477 C 50.2 58.829 50.103 59.213 49.838 59.469 C 49.573 59.725 49.185 59.808 48.838 59.684 L 43.069 57.809 L 39.4 62.628 C 39.178 62.911 38.817 63.049 38.463 62.984 C 38.109 62.92 37.82 62.665 37.712 62.321 L 33.693 49.364 L 37.049 50.614 C 39.881 51.645 43.045 50.493 44.55 47.882 L 46.013 45.382 L 50.088 58.477 Z  M 55.32 22.955 L 52.626 27.624 C 52.263 28.251 52.132 28.986 52.257 29.699 L 53.195 35.006 C 53.455 36.479 52.619 37.926 51.213 38.438 L 46.15 40.282 C 45.47 40.53 44.899 41.011 44.538 41.638 L 41.844 46.307 C 41.094 47.617 39.507 48.191 38.093 47.664 L 33.03 45.82 C 32.35 45.572 31.604 45.572 30.924 45.82 L 25.879 47.626 C 24.466 48.153 22.879 47.579 22.129 46.27 L 19.435 41.601 C 19.074 40.973 18.503 40.493 17.822 40.244 L 12.759 38.4 C 11.353 37.889 10.518 36.442 10.778 34.969 L 11.715 29.662 C 11.839 28.963 11.717 28.244 11.372 27.624 L 8.678 22.955 C 7.93 21.66 8.22 20.016 9.365 19.055 L 13.491 15.592 C 14.046 15.126 14.42 14.48 14.547 13.766 L 15.485 8.46 C 15.743 6.984 17.025 5.908 18.522 5.909 L 23.91 5.909 C 24.636 5.908 25.337 5.652 25.892 5.184 L 30.017 1.722 C 31.163 0.759 32.834 0.759 33.98 1.722 L 38.106 5.184 C 38.661 5.649 39.363 5.904 40.087 5.903 L 45.475 5.903 C 46.973 5.902 48.255 6.978 48.513 8.453 L 49.451 13.76 C 49.577 14.474 49.951 15.12 50.507 15.585 L 54.632 19.048 C 55.781 20.01 56.071 21.659 55.32 22.955 Z  M 41.619 22.117 C 41.445 21.582 40.982 21.191 40.425 21.111 L 35.524 20.398 L 33.33 15.96 C 33.081 15.455 32.566 15.135 32.002 15.135 C 31.438 15.135 30.923 15.455 30.674 15.96 L 28.48 20.398 L 23.579 21.111 C 23.032 21.198 22.579 21.583 22.405 22.11 C 22.231 22.636 22.366 23.215 22.754 23.611 L 26.304 27.068 L 25.467 32 C 25.381 32.553 25.614 33.109 26.071 33.434 C 26.527 33.759 27.128 33.799 27.623 33.537 L 31.999 31.231 L 36.374 33.537 C 36.87 33.799 37.471 33.759 37.927 33.434 C 38.383 33.109 38.617 32.553 38.531 32 L 37.693 27.118 L 41.243 23.661 C 41.659 23.264 41.805 22.661 41.619 22.117 L 41.619 22.117 Z  M 15.122 59.684 L 20.891 57.809 L 24.598 62.628 C 24.82 62.911 25.18 63.049 25.534 62.984 C 25.889 62.92 26.178 62.665 26.286 62.321 L 30.305 49.376 L 26.948 50.627 C 24.116 51.658 20.953 50.506 19.447 47.895 L 17.991 45.357 L 13.909 58.484 C 13.809 58.825 13.904 59.195 14.157 59.446 C 14.411 59.697 14.781 59.788 15.122 59.684 Z " fill="rgb(0,0,0)"/></g></svg>