<?xml version="1.0" standalone="no"?><!-- Generator: Gravit.io --><svg xmlns="http://www.w3.org/2000/svg" xmlns:xlink="http://www.w3.org/1999/xlink" style="isolation:isolate" viewBox="0 0 64 64" width="64" height="64"><defs><clipPath id="_clipPath_3KcltOZ4IDG9c94ejpMcZOzaj75kZ8VV"><rect width="64" height="64"/></clipPath></defs><g clip-path="url(#_clipPath_3KcltOZ4IDG9c94ejpMcZOzaj75kZ8VV)"><g><g><path d=" M 58.924 3.914 C 58.994 3.986 59.02 4.08 59.077 4.16 C 63.528 8.951 62.875 17.717 57.259 27.709 C 56.869 28.407 56.142 28.841 55.357 28.841 L 37.601 28.841 L 33.215 33.314 L 48.987 33.314 C 50.196 33.314 51.178 34.311 51.178 35.55 C 51.178 36.78 50.196 37.786 48.987 37.786 L 28.83 37.786 L 24.449 42.259 L 42.416 42.259 C 43.322 42.259 44.133 42.823 44.457 43.686 C 44.781 44.549 44.558 45.529 43.888 46.146 C 35.664 53.781 26.53 57.923 19.235 57.923 C 16.195 57.923 13.487 57.18 11.283 55.691 L 5.737 61.344 C 4.874 62.23 3.481 62.207 2.644 61.344 C 1.785 60.476 1.785 59.059 2.644 58.182 L 8.23 52.484 C 3.682 44.813 9.474 29.95 22.67 16.483 C 29.478 9.528 36.83 4.567 41.443 2.232 C 42.126 1.888 42.933 1.928 43.572 2.34 C 44.216 2.742 44.606 3.467 44.606 4.241 L 44.606 15.364 L 55.826 3.914 C 56.68 3.042 58.069 3.042 58.924 3.914 Z " fill-rule="evenodd" fill="rgb(0,0,0)"/></g></g></g></svg>