<?xml version="1.0" standalone="no"?><!-- Generator: Gravit.io --><svg xmlns="http://www.w3.org/2000/svg" xmlns:xlink="http://www.w3.org/1999/xlink" style="isolation:isolate" viewBox="0 0 64 64" width="64" height="64"><defs><clipPath id="_clipPath_pUslJfFEAEIR5hBVqJUV8j0y1cdpWazO"><rect width="64" height="64"/></clipPath></defs><g clip-path="url(#_clipPath_pUslJfFEAEIR5hBVqJUV8j0y1cdpWazO)"><g><path d=" M 34.283 41.385 C 34.864 42.309 35.107 43.466 34.834 44.687 C 34.475 46.298 33.165 47.59 31.55 47.931 C 28.739 48.524 26.262 46.395 26.262 43.689 C 26.262 42.822 26.516 42.016 26.954 41.339 C 27.288 40.822 26.888 40.141 26.273 40.141 L 13.93 40.141 C 13.492 40.141 13.136 40.497 13.136 40.935 L 13.136 56.815 C 13.136 57.253 13.492 57.609 13.93 57.609 L 47.278 57.609 C 47.716 57.609 48.072 57.253 48.072 56.815 L 48.072 40.935 C 48.072 40.497 47.716 40.141 47.278 40.141 L 34.931 40.141 C 34.291 40.141 33.943 40.844 34.283 41.385 Z " fill="rgb(0,0,0)"/></g><g><path d=" M 30.666 8.81 C 26.192 8.81 22.565 12.437 22.565 16.911 C 22.565 20.517 24.921 23.569 28.178 24.619 L 28.167 24.619 L 28.167 27.818 C 27.053 28.604 26.324 29.898 26.324 31.365 C 26.324 33.763 28.267 35.707 30.666 35.707 C 33.065 35.707 35.008 33.764 35.008 31.365 C 35.008 29.898 34.279 28.604 33.165 27.818 L 33.165 24.619 L 33.154 24.619 C 36.41 23.569 38.767 20.517 38.767 16.911 C 38.767 12.437 35.14 8.81 30.666 8.81 Z  M 30.666 22.333 C 27.672 22.333 25.245 19.905 25.245 16.911 C 25.245 13.917 27.672 11.49 30.666 11.49 C 33.66 11.49 36.087 13.917 36.087 16.911 C 36.087 19.905 33.66 22.333 30.666 22.333 Z " fill="rgb(0,0,0)"/><path d=" M 16.731 8.848 L 1.397 8.848 C 1.178 8.848 1 9.025 1 9.245 L 1 24.579 C 1 24.798 1.178 24.976 1.397 24.976 L 6.565 24.976 L 6.565 26.94 C 6.565 27.463 6.338 27.949 5.97 28.322 C 4.987 29.32 4.482 30.789 4.833 32.363 C 5.192 33.974 6.502 35.267 8.117 35.607 C 10.928 36.201 13.405 34.072 13.405 31.365 C 13.405 30.184 12.932 29.113 12.166 28.331 C 11.796 27.954 11.562 27.466 11.562 26.938 L 11.562 24.976 L 16.731 24.976 C 16.95 24.976 17.128 24.798 17.128 24.579 L 17.128 9.245 C 17.128 9.025 16.95 8.848 16.731 8.848 Z  M 14.486 21.936 C 14.486 22.155 14.308 22.333 14.089 22.333 L 4.04 22.333 C 3.821 22.333 3.643 22.155 3.643 21.936 L 3.643 11.887 C 3.643 11.668 3.821 11.49 4.04 11.49 L 14.089 11.49 C 14.308 11.49 14.486 11.668 14.486 11.887 L 14.486 21.936 Z " fill="rgb(0,0,0)"/><path d=" M 62.946 24.489 L 57.779 15.539 L 52.612 6.589 C 52.459 6.325 52.077 6.325 51.924 6.589 L 46.757 15.539 L 41.59 24.489 C 41.437 24.754 41.628 25.085 41.933 25.085 L 49.645 25.085 L 49.645 27.817 C 47.96 29.006 47.154 31.36 48.424 33.714 C 48.738 34.294 49.224 34.778 49.805 35.091 C 53.135 36.879 56.486 34.513 56.486 31.365 C 56.486 29.898 55.756 28.604 54.642 27.818 L 54.642 25.085 L 62.603 25.085 C 62.908 25.085 63.099 24.754 62.946 24.489 Z  M 58.302 22.732 L 52.268 22.732 L 46.234 22.732 C 45.929 22.732 45.738 22.401 45.891 22.137 L 48.908 16.911 L 51.925 11.686 C 52.077 11.422 52.46 11.422 52.613 11.686 L 55.63 16.911 L 58.647 22.137 C 58.798 22.402 58.607 22.732 58.302 22.732 Z " fill="rgb(0,0,0)"/></g></g></svg>