<svg xmlns="http://www.w3.org/2000/svg" style="isolation:isolate" viewBox="0 0 64 64" width="64" height="64"><defs><clipPath id="a"><path d="M0 0h64v64H0z"/></clipPath></defs><g clip-path="url(#a)"><path d="M58.608 5.263C55.767 2.55 52.15 1 48.146 1h-.259c-8.008.129-14.595 6.975-14.595 15.242v9.3H3.583A2.59 2.59 0 0 0 1 28.125V32h46.5v-3.875a2.59 2.59 0 0 0-2.583-2.583h-2.584v-9.43c0-3.099 2.325-5.812 5.167-6.07 1.679-.13 3.229.387 4.521 1.55 1.162 1.033 1.937 2.712 1.937 4.262v7.75c0 2.454 2.067 4.521 4.521 4.521 2.454 0 4.521-2.067 4.521-4.521v-7.75c0-4.004-1.55-7.75-4.392-10.591zM1 56.542C1 60.158 3.842 63 7.458 63h33.584c3.616 0 6.458-2.842 6.458-6.458V34.583H1v21.959zm23.25-15.5c2.842 0 5.167 2.325 5.167 5.166 0 2.455-1.679 4.392-3.875 5.038v4.004c0 .646-.517 1.292-1.292 1.292s-1.292-.646-1.292-1.292v-4.004c-2.196-.646-3.875-2.583-3.875-5.038 0-2.841 2.325-5.166 5.167-5.166z"/></g></svg>