<svg xmlns="http://www.w3.org/2000/svg" style="isolation:isolate" viewBox="0 0 64 64" width="64" height="64"><defs><clipPath id="a"><path d="M0 0h64v64H0z"/></clipPath></defs><g clip-path="url(#a)"><path d="M34.283 41.385c.581.924.824 2.081.551 3.302a4.311 4.311 0 0 1-3.284 3.244 4.348 4.348 0 0 1-5.288-4.242c0-.867.254-1.673.692-2.35.334-.517-.066-1.198-.681-1.198H13.93a.795.795 0 0 0-.794.794v15.88c0 .438.356.794.794.794h33.348a.795.795 0 0 0 .794-.794v-15.88a.795.795 0 0 0-.794-.794H34.931c-.64 0-.988.703-.648 1.244zM30.666 8.81a8.101 8.101 0 0 0-2.488 15.809h-.011v3.199a4.341 4.341 0 1 0 4.998 0v-3.199h-.011A8.101 8.101 0 0 0 30.666 8.81zm0 13.523a5.422 5.422 0 1 1 .002-10.844 5.422 5.422 0 0 1-.002 10.844zM16.731 8.848H1.397A.397.397 0 0 0 1 9.245v15.334c0 .219.178.397.397.397h5.168v1.964c0 .523-.227 1.009-.595 1.382-.983.998-1.488 2.467-1.137 4.041a4.31 4.31 0 0 0 3.284 3.244 4.347 4.347 0 0 0 5.288-4.242 4.323 4.323 0 0 0-1.239-3.034c-.37-.377-.604-.865-.604-1.393v-1.962h5.169a.397.397 0 0 0 .397-.397V9.245a.397.397 0 0 0-.397-.397zm-2.245 13.088a.397.397 0 0 1-.397.397H4.04a.397.397 0 0 1-.397-.397V11.887c0-.219.178-.397.397-.397h10.049c.219 0 .397.178.397.397v10.049zm48.46 2.553l-5.167-8.95-5.167-8.95a.398.398 0 0 0-.688 0l-5.167 8.95-5.167 8.95a.397.397 0 0 0 .343.596h7.712v2.732c-1.685 1.189-2.491 3.543-1.221 5.897.314.58.8 1.064 1.381 1.377 3.33 1.788 6.681-.578 6.681-3.726 0-1.467-.73-2.761-1.844-3.547v-2.733h7.961a.397.397 0 0 0 .343-.596zm-4.644-1.757H46.234a.397.397 0 0 1-.343-.595l3.017-5.226 3.017-5.225a.398.398 0 0 1 .688 0l3.017 5.225 3.017 5.226a.398.398 0 0 1-.345.595z"/></g></svg>