<svg xmlns="http://www.w3.org/2000/svg" style="isolation:isolate" viewBox="0 0 64 64" width="64" height="64"><defs><clipPath id="a"><path d="M0 0h64v64H0z"/></clipPath></defs><g clip-path="url(#a)"><path d="M50.088 58.477a.97.97 0 0 1-1.25 1.207l-5.769-1.875-3.669 4.819a.97.97 0 0 1-1.688-.307l-4.019-12.957 3.356 1.25a6.207 6.207 0 0 0 7.501-2.732l1.463-2.5 4.075 13.095zm5.232-35.522l-2.694 4.669a3.08 3.08 0 0 0-.369 2.075l.938 5.307a3.083 3.083 0 0 1-1.982 3.432l-5.063 1.844a3.079 3.079 0 0 0-1.612 1.356l-2.694 4.669a3.082 3.082 0 0 1-3.751 1.357L33.03 45.82a3.074 3.074 0 0 0-2.106 0l-5.045 1.806c-1.413.527-3-.047-3.75-1.356l-2.694-4.669a3.079 3.079 0 0 0-1.613-1.357L12.759 38.4a3.08 3.08 0 0 1-1.981-3.431l.937-5.307a3.083 3.083 0 0 0-.343-2.038l-2.694-4.669a3.08 3.08 0 0 1 .687-3.9l4.126-3.463a3.091 3.091 0 0 0 1.056-1.826l.938-5.306a3.081 3.081 0 0 1 3.037-2.551h5.388a3.079 3.079 0 0 0 1.982-.725l4.125-3.462a3.08 3.08 0 0 1 3.963 0l4.126 3.462a3.08 3.08 0 0 0 1.981.719h5.388a3.082 3.082 0 0 1 3.038 2.55l.938 5.307c.126.714.5 1.36 1.056 1.825l4.125 3.463a3.081 3.081 0 0 1 .688 3.907zm-13.701-.838a1.478 1.478 0 0 0-1.194-1.006l-4.901-.713-2.194-4.438a1.48 1.48 0 0 0-2.656 0l-2.194 4.438-4.901.713a1.481 1.481 0 0 0-.825 2.5l3.55 3.457L25.467 32a1.48 1.48 0 0 0 2.156 1.537l4.376-2.306 4.375 2.306A1.483 1.483 0 0 0 38.531 32l-.838-4.882 3.55-3.457c.416-.397.562-1 .376-1.544zM15.122 59.684l5.769-1.875 3.707 4.819a.968.968 0 0 0 1.688-.307l4.019-12.945-3.357 1.251a6.208 6.208 0 0 1-7.501-2.732l-1.456-2.538-4.082 13.127a.971.971 0 0 0 1.213 1.2z"/></g></svg>