<svg xmlns="http://www.w3.org/2000/svg" style="isolation:isolate" viewBox="0 0 64 64" width="64" height="64"><defs><clipPath id="a"><path d="M0 0h64v64H0z"/></clipPath></defs><g clip-path="url(#a)"><path d="M24.164 32.088a.903.903 0 0 0-.789 0l-5.022 2.775a.826.826 0 0 0-.397.654v5.55a.83.83 0 0 0 .397.658l5.022 2.775c.249.121.54.121.789 0l5.017-2.775a.83.83 0 0 0 .398-.658v-5.55a.83.83 0 0 0-.398-.659l-5.017-2.77zm3.477 8.272l-3.874 2.14-3.874-2.14v-4.136l3.874-2.141 3.874 2.141v4.136z"/><path d="M33.453 51.242l-1.254.711-.199.383v1.937a.97.97 0 0 1-1.937 0v-2.775a.965.965 0 0 1 .484-.842l1.937-1.1a.972.972 0 0 1 .969 1.686zM31.516 7.297a.969.969 0 0 1 .532-.862l1.938-.969a.969.969 0 1 1 .871 1.724l-1.404.712v1.332a.97.97 0 0 1-1.937 0V7.297zm24.699 33.159v3.323c-.074.39-.294.736-.616.968l-12.945 7.168v-2.18a1.214 1.214 0 0 0-.561-.968l-7.11-4.049a1.273 1.273 0 0 0-1.123 0l-7.11 4.059a1.214 1.214 0 0 0-.561.968v2.179l-12.946-7.153a1.543 1.543 0 0 1-.615-.968V33.086l6.703-3.826c.334-.213.543-.574.562-.969v-8.097a1.216 1.216 0 0 0-.562-.969L17.19 18l10.553-5.812c.083.179.216.331.383.436l5.811 3.284c.15.077.317.113.484.106a.937.937 0 0 0 .485-.106l5.811-3.284c.157-.101.283-.243.363-.411l1.574.833 1.981-1.119-3.433-1.894V5.19a1.003 1.003 0 0 0-.485-.799l-5.811-3.283a.938.938 0 0 0-.485-.107.972.972 0 0 0-.484.107l-5.811 3.283a1.015 1.015 0 0 0-.485.785v4.843l-12.422 6.867-2.997-1.71a1.275 1.275 0 0 0-1.124 0l-7.109 4.059a1.212 1.212 0 0 0-.562.968v8.098c.018.395.228.756.562.968l6.702 3.817v10.702a3.39 3.39 0 0 0 1.618 2.678l13.88 7.662v3.714c.018.395.228.757.561.969l7.11 4.058c.354.175.769.175 1.123 0l7.11-4.058c.333-.212.543-.574.561-.969v-3.714l13.88-7.662a3.39 3.39 0 0 0 1.618-2.678v-4.416l-1.937 1.084zM10.691 21.7l-1.259.712-.194.382v1.938a.968.968 0 0 1-1.937 0v-2.775a.971.971 0 0 1 .484-.843l1.938-1.099a.972.972 0 1 1 .968 1.685z"/><path d="M59.648 19.942l-11.71-6.616a2.078 2.078 0 0 0-1.845 0l-11.715 6.616a1.99 1.99 0 0 0-.925 1.564v13.231a1.99 1.99 0 0 0 .925 1.564l11.71 6.616a2.078 2.078 0 0 0 1.845 0l11.715-6.616a1.99 1.99 0 0 0 .925-1.564V21.506a1.99 1.99 0 0 0-.925-1.564zm-13.604 2.237l-4.358 2.553v4.358a.97.97 0 0 1-1.937 0v-4.94c0-.345.185-.665.484-.837l4.843-2.809a.968.968 0 0 1 .968 1.675z"/></g></svg>