<svg xmlns="http://www.w3.org/2000/svg" style="isolation:isolate" viewBox="0 0 64 64" width="64" height="64"><defs><clipPath id="a"><path d="M0 0h64v64H0z"/></clipPath></defs><g clip-path="url(#a)"><path d="M58.924 3.914c.07.072.096.166.153.246 4.451 4.791 3.798 13.557-1.818 23.549a2.187 2.187 0 0 1-1.902 1.132H37.601l-4.386 4.473h15.772c1.209 0 2.191.997 2.191 2.236 0 1.23-.982 2.236-2.191 2.236H28.83l-4.381 4.473h17.967c.906 0 1.717.564 2.041 1.427a2.268 2.268 0 0 1-.569 2.46c-8.224 7.635-17.358 11.777-24.653 11.777-3.04 0-5.748-.743-7.952-2.232l-5.546 5.653a2.151 2.151 0 0 1-3.093 0 2.262 2.262 0 0 1 0-3.162l5.586-5.698C3.682 44.813 9.474 29.95 22.67 16.483 29.478 9.528 36.83 4.567 41.443 2.232a2.142 2.142 0 0 1 2.129.108 2.239 2.239 0 0 1 1.034 1.901v11.123l11.22-11.45a2.161 2.161 0 0 1 3.098 0z" fill-rule="evenodd"/></g></svg>